<svg width="60" height="61" viewBox="0 0 60 61" fill="none" xmlns="http://www.w3.org/2000/svg">
<g id="Group 74">
<path id="Rectangle 43" d="M34.569 13.7952C38.9418 13.17 42.1112 18.2735 39.5677 21.8442L36.3561 26.3529L24.7787 47.6383L45.6695 42.3054C49.9441 41.2142 50.4945 35.3459 46.5352 33.075L17.2408 16.2728L34.569 13.7952Z" fill="#F27F0C"/>
<path id="Rectangle 44" d="M10.9844 16.8875C12.2136 14.8159 15.0031 16.8044 14.164 19.1541L10.4584 29.5308C9.95523 30.9398 10.8628 32.5865 12.1742 32.6439L18.7576 32.9325C20.6141 33.0138 21.3263 35.9745 19.7394 37.0143L16.2734 39.2854C15.3001 39.9232 15.1052 41.4962 15.868 42.557L19.0521 46.9846C20.49 48.9842 18.4588 51.6218 16.6829 50.0612L1.50239 36.7212C0.672664 35.9921 0.456949 34.6309 1.02057 33.681L10.9844 16.8875Z" fill="#F27F0C"/>
</g>
</svg>
